<svg class="main-svg" xmlns="http://www.w3.org/2000/svg" xmlns:xlink="http://www.w3.org/1999/xlink" width="2200" height="1000" style="" viewBox="0 0 1100 500"><rect x="0" y="0" width="1100" height="500" style="fill: rgb(255, 255, 255); fill-opacity: 1;"/><defs id="defs-2a89b0"><g class="clips"><clipPath id="clip2a89b0xyplot" class="plotclip"><rect width="1014" height="385"/></clipPath><clipPath class="axesclip" id="clip2a89b0x"><rect x="71" y="0" width="1014" height="500"/></clipPath><clipPath class="axesclip" id="clip2a89b0y"><rect x="0" y="50" width="1100" height="385"/></clipPath><clipPath class="axesclip" id="clip2a89b0xy"><rect x="71" y="50" width="1014" height="385"/></clipPath></g><g class="gradients"/><g class="patterns"/></defs><g class="bglayer"/><g class="layer-below"><g class="imagelayer"/><g class="shapelayer"/></g><g class="cartesianlayer"><g class="subplot xy"><g class="layer-subplot"><g class="shapelayer"/><g class="imagelayer"/></g><g class="minor-gridlayer"><g class="x"/><g class="y"/></g><g class="gridlayer"><g class="x"><path class="xgrid crisp" transform="translate(263.65999999999997,0)" d="M0,50v385" style="stroke: rgb(0, 0, 0); stroke-opacity: 0.05; stroke-width: 1px;"/><path class="xgrid crisp" transform="translate(466.46,0)" d="M0,50v385" style="stroke: rgb(0, 0, 0); stroke-opacity: 0.05; stroke-width: 1px;"/><path class="xgrid crisp" transform="translate(669.26,0)" d="M0,50v385" style="stroke: rgb(0, 0, 0); stroke-opacity: 0.05; stroke-width: 1px;"/><path class="xgrid crisp" transform="translate(872.06,0)" d="M0,50v385" style="stroke: rgb(0, 0, 0); stroke-opacity: 0.05; stroke-width: 1px;"/><path class="xgrid crisp" transform="translate(1074.8600000000001,0)" d="M0,50v385" style="stroke: rgb(0, 0, 0); stroke-opacity: 0.05; stroke-width: 1px;"/></g><g class="y"><path class="ygrid crisp" transform="translate(0,358)" d="M71,0h1014" style="stroke: rgb(0, 0, 0); stroke-opacity: 0.05; stroke-width: 1px;"/><path class="ygrid crisp" transform="translate(0,281)" d="M71,0h1014" style="stroke: rgb(0, 0, 0); stroke-opacity: 0.05; stroke-width: 1px;"/><path class="ygrid crisp" transform="translate(0,204)" d="M71,0h1014" style="stroke: rgb(0, 0, 0); stroke-opacity: 0.05; stroke-width: 1px;"/><path class="ygrid crisp" transform="translate(0,127)" d="M71,0h1014" style="stroke: rgb(0, 0, 0); stroke-opacity: 0.05; stroke-width: 1px;"/></g></g><g class="zerolinelayer"><path class="yzl zl crisp" transform="translate(0,435)" d="M71,0h1014" style="stroke: rgb(0, 0, 0); stroke-opacity: 0.05; stroke-width: 2px;"/></g><g class="layer-between"><g class="shapelayer"/><g class="imagelayer"/></g><path class="xlines-below"/><path class="ylines-below"/><g class="overlines-below"/><g class="xaxislayer-below"/><g class="yaxislayer-below"/><g class="overaxes-below"/><g class="overplot"><g class="xy" transform="translate(71,50)" clip-path="url(#clip2a89b0xyplot)"><g class="scatterlayer mlayer"><g class="trace scatter trace728240" style="stroke-miterlimit: 2; opacity: 1;"><g class="fills"/><g class="errorbars"/><g class="lines"><path class="js-line" d="M0,132.69L10.14,262.74L20.28,255.61L30.42,230.49L40.56,242.66L50.7,257.43L60.84,240.09L70.98,205.22L81.12,217.34L91.26,251.95L101.4,202.62L111.54,208.39L121.68,234.52L131.82,239.51L141.96,232.03L152.1,224.4L162.24,233.38L172.38,231.53L182.52,224.9L192.66,231.08L202.8,232.48L212.94,228.45L223.08,229.58L233.22,230.84L243.36,233.99L253.5,231.55L263.64,231.95L273.78,233.28L283.92,232.32L294.06,228.34L304.2,232.05L314.34,235.84L324.48,236.14L334.62,226.45L344.76,225.37L354.9,236.12L365.04,227.92L375.18,232.58L385.32,229.82L395.46,234.73L405.6,233.34L415.74,232.24L425.88,235.23L436.02,229.13L446.16,230.77L456.3,226.7L466.44,233.28L476.58,233.63L486.72,226.36L496.86,230.5L507,225.83L517.14,233.15L527.28,234.49L537.42,230.39L547.56,234.3L557.7,228.19L567.84,225.21L577.98,235.71L588.12,230.94L598.26,233.18L608.4,228.13L618.54,233.24L628.68,236.7L638.82,227.15L648.96,235.5L669.24,231.48L679.38,230.23L699.66,233.99L709.8,230.68L719.94,229.21L730.08,228.65L740.22,235.19L750.36,231.98L760.5,235.05L770.64,228.37L780.78,227.26L790.92,230.5L801.06,228.89L811.2,232.26L821.34,228.75L831.48,228.18L841.62,233.38L851.76,228.97L861.9,232.77L872.04,229.29L882.18,231.8L892.32,227.63L922.74,231.77L932.88,230.83L953.16,226.76L963.3,230.76L973.44,236.2L983.58,232.47L993.72,223.59L1003.86,223.14L1014,225.4" style="vector-effect: none; fill: none; stroke: rgb(124, 181, 236); stroke-opacity: 1; stroke-width: 2px; opacity: 1;"/></g><g class="points"/><g class="text"/></g><g class="trace scatter traceccc649" style="stroke-miterlimit: 2; opacity: 1;"><g class="fills"/><g class="errorbars"/><g class="lines"><path class="js-line" d="M0,129.87L10.14,260.48L20.28,251.31L30.42,227.69L40.56,241.27L50.7,256.72L60.84,239L70.98,204.01L81.12,217.44L91.26,249.84L101.4,201.98L111.54,206.86L121.68,234.74L131.82,238.11L141.96,230.47L152.1,222.21L162.24,233.06L172.38,230.43L182.52,225.04L192.66,227.46L202.8,229.06L212.94,227.31L223.08,227.6L233.22,228.37L243.36,232.5L253.5,229.72L263.64,229.18L273.78,230.05L283.92,232.5L294.06,229.49L304.2,229.94L314.34,234.56L324.48,234.45L334.62,228.47L344.76,226.8L354.9,233.84L365.04,226.85L375.18,231.21L385.32,227.84L395.46,233.46L405.6,233.05L415.74,231.3L425.88,233.28L436.02,226.5L446.16,229.55L456.3,223.75L466.44,234.59L476.58,233.08L486.72,225.17L496.86,228.56L507,224.5L517.14,231.53L527.28,229.61L537.42,228.69L547.56,233.96L557.7,226.23L567.84,226.59L577.98,232.46L588.12,228.76L598.26,231.26L608.4,224.96L618.54,231.39L628.68,235.63L638.82,227.51L648.96,233.11L659.1,230.56L669.24,230.58L679.38,228.39L689.52,231.15L699.66,231.88L709.8,226.95L719.94,227.68L730.08,227.65L740.22,233.24L750.36,231.37L760.5,234.89L770.64,226.08L780.78,225.01L790.92,227.76L801.06,228.83L811.2,231.04L821.34,228.17L831.48,226.89L841.62,230.27L851.76,228.72L861.9,231.31L872.04,228.01L882.18,230.96L892.32,228.03L912.6,228.86L922.74,231.13L932.88,230.23L943.02,230.24L953.16,225.8L963.3,229.84L973.44,236.19L983.58,229.94L993.72,223.97L1003.86,224.49L1014,225.02" style="vector-effect: none; fill: none; stroke: rgb(67, 67, 72); stroke-opacity: 1; stroke-width: 2px; opacity: 1;"/></g><g class="points"/><g class="text"/></g></g></g></g><path class="xlines-above crisp" d="M0,0" style="fill: none;"/><path class="ylines-above crisp" d="M0,0" style="fill: none;"/><g class="overlines-above"/><g class="xaxislayer-above"><g class="xtick"><text text-anchor="middle" x="0" y="451" transform="translate(263.65999999999997,0)" style="font-family: 'Lucida Grande', 'Open Sans', verdana, arial, sans-serif; font-size: 10px; fill: rgb(0, 0, 0); fill-opacity: 1; white-space: pre; opacity: 1;">20</text></g><g class="xtick"><text text-anchor="middle" x="0" y="451" style="font-family: 'Lucida Grande', 'Open Sans', verdana, arial, sans-serif; font-size: 10px; fill: rgb(0, 0, 0); fill-opacity: 1; white-space: pre; opacity: 1;" transform="translate(466.46,0)">40</text></g><g class="xtick"><text text-anchor="middle" x="0" y="451" style="font-family: 'Lucida Grande', 'Open Sans', verdana, arial, sans-serif; font-size: 10px; fill: rgb(0, 0, 0); fill-opacity: 1; white-space: pre; opacity: 1;" transform="translate(669.26,0)">60</text></g><g class="xtick"><text text-anchor="middle" x="0" y="451" style="font-family: 'Lucida Grande', 'Open Sans', verdana, arial, sans-serif; font-size: 10px; fill: rgb(0, 0, 0); fill-opacity: 1; white-space: pre; opacity: 1;" transform="translate(872.06,0)">80</text></g><g class="xtick"><text text-anchor="middle" x="0" y="451" style="font-family: 'Lucida Grande', 'Open Sans', verdana, arial, sans-serif; font-size: 10px; fill: rgb(0, 0, 0); fill-opacity: 1; white-space: pre; opacity: 1;" transform="translate(1074.8600000000001,0)">100</text></g></g><g class="yaxislayer-above"><g class="ytick"><text text-anchor="end" x="65" y="3.5" transform="translate(0,435)" style="font-family: 'Lucida Grande', 'Open Sans', verdana, arial, sans-serif; font-size: 10px; fill: rgb(0, 0, 0); fill-opacity: 1; white-space: pre; opacity: 1;">0%</text></g><g class="ytick"><text text-anchor="end" x="65" y="3.5" style="font-family: 'Lucida Grande', 'Open Sans', verdana, arial, sans-serif; font-size: 10px; fill: rgb(0, 0, 0); fill-opacity: 1; white-space: pre; opacity: 1;" transform="translate(0,358)">20%</text></g><g class="ytick"><text text-anchor="end" x="65" y="3.5" style="font-family: 'Lucida Grande', 'Open Sans', verdana, arial, sans-serif; font-size: 10px; fill: rgb(0, 0, 0); fill-opacity: 1; white-space: pre; opacity: 1;" transform="translate(0,281)">40%</text></g><g class="ytick"><text text-anchor="end" x="65" y="3.5" style="font-family: 'Lucida Grande', 'Open Sans', verdana, arial, sans-serif; font-size: 10px; fill: rgb(0, 0, 0); fill-opacity: 1; white-space: pre; opacity: 1;" transform="translate(0,204)">60%</text></g><g class="ytick"><text text-anchor="end" x="65" y="3.5" style="font-family: 'Lucida Grande', 'Open Sans', verdana, arial, sans-serif; font-size: 10px; fill: rgb(0, 0, 0); fill-opacity: 1; white-space: pre; opacity: 1;" transform="translate(0,127)">80%</text></g><g class="ytick"><text text-anchor="end" x="65" y="3.5" style="font-family: 'Lucida Grande', 'Open Sans', verdana, arial, sans-serif; font-size: 10px; fill: rgb(0, 0, 0); fill-opacity: 1; white-space: pre; opacity: 1;" transform="translate(0,50)">100%</text></g></g><g class="overaxes-above"/></g></g><g class="polarlayer"/><g class="smithlayer"/><g class="ternarylayer"/><g class="geolayer"/><g class="funnelarealayer"/><g class="pielayer"/><g class="iciclelayer"/><g class="treemaplayer"/><g class="sunburstlayer"/><g class="glimages"/><defs id="topdefs-2a89b0"><g class="clips"/></defs><g class="layer-above"><g class="imagelayer"/><g class="shapelayer"/></g><g class="infolayer"><g class="g-gtitle"><text class="gtitle" x="550" y="25" text-anchor="middle" dy="0em" style="opacity: 1; font-family: 'Lucida Grande', 'Open Sans', verdana, arial, sans-serif; font-size: 20px; fill: rgb(42, 63, 95); fill-opacity: 1; white-space: pre;"><tspan class="line" dy="0em" x="550" y="25">Fastp: Read GC Content</tspan><tspan class="line" dy="1.3em" x="550" y="25">​<tspan style="font-size:70%" dy="-0.6em">Read 2: After filtering, 2 samples</tspan><tspan dy="0.42em">​</tspan></tspan></text></g><g class="g-xtitle"><text class="xtitle" x="578" y="472.3" text-anchor="middle" style="opacity: 0.3; font-family: 'Lucida Grande', 'Open Sans', verdana, arial, sans-serif; font-size: 14px; fill: rgb(0, 0, 0); fill-opacity: 1; white-space: pre;">Read Position</text></g><g class="g-ytitle"><text class="ytitle" transform="rotate(-90,22.00625,242.5)" x="22.00625" y="242.5" text-anchor="middle" style="opacity: 0.3; font-family: 'Lucida Grande', 'Open Sans', verdana, arial, sans-serif; font-size: 14px; fill: rgb(0, 0, 0); fill-opacity: 1; white-space: pre;">R2 After filtering: Base Content Percent</text></g></g></svg>